<svg width="768" height="597" viewBox="0 0 768 597" fill="none" xmlns="http://www.w3.org/2000/svg">
<path fill-rule="evenodd" clip-rule="evenodd" d="M261.226 151.024L466.633 74.2188C486.384 111.869 501.938 151.608 513.015 192.716L319.133 291.445C319.133 291.445 287.248 199.351 261.226 151.024Z" fill="#F1F2F2"/>
<path fill-rule="evenodd" clip-rule="evenodd" d="M261.09 151.531C312.771 168.959 363.196 189.913 412.012 214.247L419.225 217.843L419.225 217.842C438.894 177.944 453.892 135.905 463.921 92.5642L468.077 74.6056L261.09 151.531Z" fill="#E6E7E8"/>
<path fill-rule="evenodd" clip-rule="evenodd" d="M533.55 286.081L615.146 255.845C623.02 270.742 629.227 286.461 633.655 302.719L556.653 341.629C556.653 341.629 543.923 305.202 533.55 286.081Z" fill="#F1F2F2"/>
<path fill-rule="evenodd" clip-rule="evenodd" d="M718.508 430.038L651.525 374.492C660.489 360.225 670.999 346.99 682.865 335.026L755.063 382.256C755.063 382.256 729.881 411.494 718.508 430.038Z" fill="#F1F2F2"/>
<path fill-rule="evenodd" clip-rule="evenodd" d="M683.045 335.067C687.322 356.336 691.059 366.145 692.39 387.8L692.587 391L692.587 392.221C710.225 391.066 729.524 389.298 746.431 384.138L753.436 382L683.045 335.067Z" fill="#E6E7E8"/>
<rect x="756.749" y="375.157" width="21" height="21" rx="10.5" transform="rotate(75 756.749 375.157)" fill="#EF5350"/>
<path fill-rule="evenodd" clip-rule="evenodd" d="M748.812 387.622L748.788 384.072C748.785 383.658 749.258 383.42 749.589 383.669L749.851 383.867C750.111 384.062 750.259 384.371 750.249 384.695L750.168 387.393L752.754 386.579C753.062 386.482 753.398 386.539 753.656 386.734L753.848 386.878C754.178 387.127 754.081 387.646 753.683 387.759L750.293 388.718L750.309 392.768C750.31 393.181 749.838 393.418 749.508 393.169L749.228 392.959C748.97 392.764 748.821 392.455 748.831 392.131L748.921 388.995L745.903 389.932C745.595 390.027 745.261 389.969 745.004 389.776L744.772 389.601C744.442 389.352 744.539 388.833 744.937 388.72L748.812 387.622Z" fill="white"/>
<path fill-rule="evenodd" clip-rule="evenodd" d="M532.717 285.328L532.717 285.328C553.275 292.259 573.335 300.591 592.754 310.266L595.624 311.696C603.443 295.843 609.404 279.139 613.388 261.917L615.039 254.782L532.717 285.328Z" fill="#E6E7E8"/>
<path fill-rule="evenodd" clip-rule="evenodd" d="M630.156 130.32L698.333 106.279C704.665 118.768 709.602 131.918 713.054 145.491L648.572 176.803C648.572 176.803 638.505 146.353 630.156 130.32Z" fill="#F1F2F2"/>
<path fill-rule="evenodd" clip-rule="evenodd" d="M630.981 131.102C647.583 137.044 663.753 144.15 679.376 152.368L681.685 153.582C688.346 140.443 693.511 126.58 697.078 112.269L698.555 106.339L630.981 131.102Z" fill="#E6E7E8"/>
<rect x="436.022" y="72.6255" width="39" height="39" rx="19.5" transform="rotate(-21 436.022 72.6255)" fill="#1DD37F"/>
<path fill-rule="evenodd" clip-rule="evenodd" d="M461.85 91.4883L452.157 86.8203C451.968 86.7291 451.883 86.4992 451.967 86.307L452.666 84.716C452.75 84.5237 452.972 84.4418 453.161 84.5329L460.499 88.0664C460.593 88.1115 460.699 88.1158 460.794 88.0783C460.889 88.0407 460.964 87.9647 461.001 87.8677L465.905 75.1919C465.981 74.9958 466.199 74.9037 466.392 74.9862L467.988 75.6691C468.181 75.7516 468.276 75.9775 468.2 76.1737L462.352 91.2896C462.315 91.3865 462.24 91.4626 462.145 91.5001C462.05 91.5376 461.944 91.5334 461.85 91.4883Z" fill="white"/>
<path fill-rule="evenodd" clip-rule="evenodd" d="M171.715 309.077C171.05 306.9 169.227 305.279 166.993 304.879C159.294 303.12 148.608 308.461 141.655 312.397C133.794 316.967 126.691 322.741 120.603 329.508C107.873 343.368 98.4647 360.527 90.9394 378.049C88.5544 383.603 86.3576 389.303 84.2425 394.998C85.9093 375.021 91.213 355.242 99.5053 339.918C106.096 327.739 116.274 318.206 125.809 308.395C135.162 298.772 146.772 287.749 146.216 273.193C146.197 271.252 145.547 269.37 144.365 267.833C142.527 265.693 139.716 264.659 136.935 265.1C126.95 266.115 116.348 275.895 109.642 282.753C102.213 290.492 96.0901 299.394 91.5151 309.109C82.023 328.825 77.9026 350.836 76.1966 372.528C75.6141 379.934 75.3598 387.443 75.206 394.896C75.105 399.793 74.8446 405.526 74.9821 411.12C74.8845 410.793 74.8017 410.513 74.7383 410.291C69.1991 390.957 67.2094 369.971 69.7204 352.972C71.4569 341.217 76.578 330.826 81.1441 320.354C85.6225 310.083 91.4252 298.105 87.181 286.056C86.6718 284.458 85.6981 283.048 84.3849 282.009C82.5532 280.665 80.1262 280.463 78.0983 281.484C70.8822 284.702 65.5091 295.4 62.2869 302.73C58.7168 311.114 56.4717 320.006 55.6325 329.085C53.7029 347.835 56.4024 367.233 60.8273 385.79C62.3382 392.126 64.122 398.47 65.9662 404.744C68.2113 412.38 70.7934 422.556 74.7692 429.22C76.5937 432.271 78.5762 431.05 78.8866 428.189C78.9958 427.183 81.6583 424.796 82.1714 423.534C82.9883 421.525 82.6034 419.629 83.0483 417.655C83.925 413.765 86.0465 409.798 87.4665 406.033C94.5627 387.219 105.488 369.214 117.639 357.106C126.042 348.734 136.342 343.488 146.246 337.843C155.96 332.307 167.753 326.199 171.541 313.998C172.087 312.412 172.147 310.698 171.715 309.077Z" fill="#F0F2F2"/>
<path fill-rule="evenodd" clip-rule="evenodd" d="M380.076 490.147C365.298 466.479 338.061 461.398 316.057 447.202C289.82 430.276 283.264 400.084 266.303 375.63C251.993 354.999 231.803 341.565 206.778 338.055C173.844 333.436 138.145 344.067 114.897 368.337C100.374 383.497 93.1806 402.227 82.7555 419.885C69.0864 443.038 39.9435 454.963 20.3905 472.605C10.215 481.786 1.48896 494.723 0.157989 509.062C-0.905408 520.517 3.23181 541.729 17.6832 543.053C77.1758 548.506 136.972 549.269 196.675 548.932C248.889 548.638 301.122 547.569 353.356 546.556C360.059 546.426 366.871 546.279 373.271 544.25C398.543 536.235 392.998 510.843 380.076 490.147Z" fill="#E9EBEF" fill-opacity="0.5"/>
<path fill-rule="evenodd" clip-rule="evenodd" d="M195.391 379H231.609C236.796 379 241 383.224 241 388.435V412.565C241 417.776 236.796 422 231.609 422H195.391C192.9 422 190.512 421.006 188.751 419.237C186.989 417.467 186 415.068 186 412.565V388.435C186 383.224 190.204 379 195.391 379Z" fill="#F7AA74"/>
<path fill-rule="evenodd" clip-rule="evenodd" d="M208.509 391.185C210.341 390.645 212.092 389.867 213.718 388.87C215.051 388.341 216.354 387.74 217.621 387.069C218.421 386.52 219.134 385.829 219.939 385.287C220.282 385.063 220.636 384.856 221 384.668V379H206V392C206.816 391.671 207.655 391.399 208.509 391.185Z" fill="#CE804A"/>
<rect x="206" y="415" width="15" height="7" fill="#CE804A"/>
<path fill-rule="evenodd" clip-rule="evenodd" d="M390.969 191.143C391.316 195.984 388.712 200.557 384.372 202.73C380.032 204.903 374.811 204.248 371.143 201.069C367.475 197.891 366.082 192.816 367.614 188.211C369.147 183.606 373.302 180.377 378.143 180.031C381.318 179.803 384.452 180.846 386.858 182.93C389.263 185.014 390.742 187.968 390.969 191.143Z" fill="#061B35"/>
<path fill-rule="evenodd" clip-rule="evenodd" d="M366.152 217.011C366.407 217.262 366.558 217.602 366.574 217.961C367.287 222.006 368.918 225.828 371.337 229.128C371.993 230.081 373.212 230.453 374.28 230.026C377.156 229.398 379.986 228.571 382.751 227.553C384.257 231.139 385.439 234.857 386.281 238.659C387.009 241.376 387.338 244.186 387.259 247C389.317 246.423 391.339 245.722 393.315 244.901C397.801 243.007 403.383 240.362 407.323 236.617C406.316 235.206 405.518 233.654 404.954 232.01C403.691 228.354 403.351 224.437 403.965 220.615C404.678 216.233 407.12 212.315 407.776 207.978C408.211 204.88 408.01 201.724 407.187 198.707C405.548 192.104 400.938 186.663 394.737 184.015C389.91 182.106 383.972 181.26 378.961 182.789C377.761 183.137 376.587 183.577 375.452 184.104C374.356 184.638 374.19 185.399 373.68 186.379C372.806 188.058 372.019 189.781 371.323 191.542C370.589 193.223 369.985 194.959 369.516 196.734C368.826 200.519 367.579 204.178 365.818 207.589C364.559 209.807 362.92 211.78 361.554 213.933C361.129 214.603 360.738 215.515 361.227 216.139C361.637 216.523 362.187 216.718 362.745 216.674C363.637 216.725 364.529 216.775 365.421 216.826C365.677 216.816 365.93 216.881 366.152 217.011Z" fill="#EEA0AD"/>
<path fill-rule="evenodd" clip-rule="evenodd" d="M552.349 208.756C551.711 204.825 550.511 201.005 548.784 197.416C546.907 193.467 544.244 189.942 540.958 187.056C534.641 181.61 525.539 179.114 517.626 181.757C512.251 183.552 507.878 187.427 503.076 190.434C498.275 193.442 492.297 195.64 487.003 193.621C482.841 192.034 479.611 188.013 475.167 187.703C469.234 187.288 465.23 193.453 460.072 196.41C456.041 198.68 451.198 199.005 446.901 197.292C442.871 195.65 439.762 192.368 436.059 190.085C428.316 185.311 417.945 185.691 410.243 190.365C407.175 184.739 402.076 180.49 395.985 178.484C388.895 176.105 381.154 176.601 374.427 179.865C368.521 182.823 369.182 188.75 372.58 193.637C375.544 197.619 379.622 200.634 384.299 202.303C385.089 202.622 390.076 203.776 390.29 204.373C389.468 202.077 392.798 199.978 394.946 201.135C397.094 202.293 397.694 205.204 397.12 207.573C396.787 208.987 396.008 210.256 394.898 211.195C394.327 211.664 393.654 211.994 392.933 212.16C392.389 212.277 391.219 211.991 390.87 212.536C390.126 213.699 391.587 216.617 392.115 217.668C393.199 219.697 394.706 221.471 396.536 222.868C397.537 223.852 398.63 224.738 399.801 225.513C402.438 226.937 404.145 223.161 405.451 221.423C407.344 218.972 409.032 216.371 410.499 213.644C412.609 209.622 413.56 205.094 413.246 200.565C415.872 201.249 418.221 202.729 419.971 204.801C423.197 208.656 424.387 213.785 425.197 218.744C426.006 223.704 426.571 228.823 428.857 233.299C431.657 238.609 436.508 242.544 442.284 244.194C448.061 245.784 454.22 245.22 459.611 242.606C463.978 240.508 467.857 237.159 472.625 236.299C477.224 235.523 481.897 237.172 484.987 240.661C489.321 245.665 489.46 253.29 493.724 258.354C498.536 264.067 507.15 264.806 514.484 263.361C539.804 258.371 556.573 234.188 552.349 208.756Z" fill="#0D2547"/>
<path fill-rule="evenodd" clip-rule="evenodd" d="M381.779 547.357C381.83 549.537 382.046 551.704 382.199 553.884L351.038 556C351.038 555.696 351.025 555.392 351 555.088C355.537 553.176 359.968 551.022 364.273 548.637C365.315 548.079 366.345 547.496 367.375 546.938C367.388 546.926 367.4 546.926 367.413 546.913C367.534 546.847 367.649 546.771 367.756 546.685C368.366 546.102 368.741 545.318 368.812 544.48C369.091 542.896 369.498 541.349 369.841 539.791C370.159 538.295 370.452 536.8 370.744 535.291C373.872 535.368 377.012 535.33 380.139 535.177C381.093 535.139 382.046 535.063 383 535C382.619 537.012 382.347 539.042 382.186 541.083C382.021 542.528 381.856 543.973 381.792 545.43V545.608C381.767 546.178 381.754 546.774 381.779 547.357Z" fill="#E8E4E3"/>
<path fill-rule="evenodd" clip-rule="evenodd" d="M382 552.963L351.038 555C351.038 554.707 351.025 554.415 351 554.122C355.508 552.282 359.91 550.21 364.188 547.915C365.224 547.378 366.247 546.817 367.271 546.28C367.435 546.366 367.624 546.439 367.7 546.476C368.297 546.726 368.933 546.874 369.582 546.915C373.693 547.355 377.85 546.692 381.596 545C381.57 545.549 381.558 546.122 381.583 546.683C381.634 548.78 381.848 550.866 382 552.963Z" fill="#231510"/>
<path fill-rule="evenodd" clip-rule="evenodd" d="M429.49 344.426C428.86 343.276 428.127 342.186 427.299 341.171C426.97 340.767 426.618 340.374 426.253 340L393.538 347.296C393.489 347.306 392.905 356.832 392.837 357.518C391.492 370.971 386.761 383.822 383.509 396.884C379.725 412.087 376.092 427.599 374.334 443.18C372.344 459.824 371.472 476.576 370.715 493.315C370.471 498.701 370.239 504.089 369.987 509.475C369.89 511.534 369.475 527.295 369 537C373.491 536.861 377.974 536.512 382.461 536.275C382.937 533.552 383.248 530.929 383.421 530.149C386.844 514.708 391.479 499.465 392.005 483.531C392.252 477.829 391.815 472.119 390.704 466.523C389.595 461.349 387.78 455.41 390.24 450.34C393.795 443.012 399.131 436.56 403.407 429.648C413.355 413.37 421.818 396.217 428.69 378.398C432.917 367.594 435.429 355.225 429.49 344.426Z" fill="#C85947"/>
<path fill-rule="evenodd" clip-rule="evenodd" d="M386.103 556.776L366.163 557.996C365.045 558.062 364.081 557.274 364.004 556.234C363.934 555.193 364.779 554.295 365.897 554.224L385.837 553.004C386.955 552.938 387.919 553.726 387.996 554.766C388.066 555.807 387.22 556.705 386.103 556.776Z" fill="#6AA1D8"/>
<path fill-rule="evenodd" clip-rule="evenodd" d="M376.427 556.928C375.297 557.231 374.14 556.546 373.836 555.394L365.07 521.716C364.773 520.563 365.445 519.381 366.573 519.072C367.703 518.769 368.86 519.454 369.164 520.606L377.93 554.284C378.227 555.437 377.555 556.619 376.427 556.928Z" fill="#0F1823"/>
<path fill-rule="evenodd" clip-rule="evenodd" d="M530.75 573.226C519.538 573.581 508.313 574.088 497.113 573.408C482.956 572.454 468.759 572.261 454.581 572.83C423.722 574.244 392.802 574.7 361.896 574.445C346.281 574.317 330.671 574.017 315.065 573.546C300.693 573.126 286.375 571.128 271.827 571.012C269.991 570.997 268.154 570.996 266.317 571.009C246.705 571.149 227.183 572.844 207.722 574.666C197.986 575.578 188.255 576.527 178.504 577.329C172.631 577.812 159.456 577.137 157.181 583.181C154.777 589.567 177.066 591.991 181.923 592.849C191.098 594.443 200.347 595.553 209.634 596.175C228.325 597.307 247.066 597.274 265.753 596.075C301.722 594.093 337.287 591.731 373.401 592.722C404.836 593.585 436.239 595.2 467.693 595.591C489.676 595.864 512.821 596.773 534.297 591.601C540.857 590.022 559.823 585.172 560.947 578.588C561.909 572.949 549.556 573.023 545.179 572.956C543.39 572.928 541.603 572.97 539.814 572.998C536.795 573.046 533.773 573.13 530.75 573.226Z" fill="#F7F8FA"/>
<path fill-rule="evenodd" clip-rule="evenodd" d="M525.325 453.228C538.219 463.052 547.586 476.766 552.034 492.329C552.136 492.696 552.471 492.95 552.853 492.951H556.131C556.4 492.95 556.655 492.825 556.819 492.612C556.984 492.399 557.04 492.121 556.971 491.861C552.623 475.893 543.404 461.669 530.591 451.159C530.563 451.131 530.546 451.099 530.515 451.073C530.399 450.978 530.278 450.89 530.162 450.796C529.921 450.601 529.673 450.414 529.43 450.222C528.737 449.674 528.039 449.134 527.328 448.609C527.01 448.374 526.687 448.146 526.365 447.916C525.712 447.448 525.052 446.99 524.385 446.54C524.029 446.301 523.671 446.067 523.311 445.833C522.656 445.409 521.994 444.993 521.325 444.588C520.954 444.362 520.582 444.137 520.207 443.918C519.521 443.517 518.828 443.129 518.13 442.748C517.765 442.549 517.403 442.347 517.035 442.153C516.272 441.753 515.5 441.37 514.723 440.994C514.411 440.843 514.104 440.684 513.79 440.537C512.738 440.043 511.674 439.572 510.598 439.122C510.555 439.105 510.514 439.085 510.472 439.067C509.334 438.596 508.182 438.151 507.018 437.732C506.751 437.636 506.48 437.552 506.212 437.459C505.33 437.151 504.444 436.852 503.548 436.575C503.152 436.452 502.751 436.342 502.352 436.225C501.573 435.997 500.792 435.775 500.003 435.57C499.556 435.455 499.107 435.348 498.657 435.24C497.902 435.058 497.144 434.884 496.38 434.724C495.911 434.625 495.44 434.531 494.967 434.442C494.207 434.296 493.443 434.162 492.675 434.04C492.2 433.963 491.725 433.887 491.247 433.818C490.458 433.706 489.663 433.611 488.867 433.522C488.407 433.47 487.949 433.413 487.487 433.369C486.615 433.287 485.736 433.227 484.856 433.173C484.465 433.149 484.078 433.114 483.686 433.095C482.414 433.035 481.136 433 479.849 433L479.844 433L479.839 433C478.552 433 477.274 433.035 476.002 433.095C475.61 433.114 475.223 433.149 474.832 433.173C473.952 433.227 473.073 433.287 472.201 433.369C471.739 433.413 471.281 433.47 470.821 433.522C470.025 433.611 469.23 433.706 468.441 433.818C467.963 433.887 467.488 433.963 467.013 434.04C466.245 434.163 465.481 434.297 464.721 434.442C464.248 434.532 463.777 434.626 463.308 434.724C462.544 434.884 461.786 435.058 461.031 435.24C460.581 435.348 460.132 435.455 459.685 435.57C458.896 435.775 458.115 435.997 457.335 436.225C456.937 436.342 456.536 436.452 456.14 436.575C455.244 436.852 454.358 437.151 453.476 437.459C453.208 437.552 452.937 437.636 452.67 437.732C451.506 438.152 450.355 438.597 449.216 439.067C449.174 439.085 449.133 439.105 449.09 439.122C448.014 439.571 446.949 440.042 445.897 440.537C445.584 440.684 445.276 440.843 444.965 440.994C444.188 441.37 443.416 441.753 442.653 442.153C442.285 442.347 441.923 442.549 441.558 442.748C440.86 443.129 440.166 443.517 439.481 443.918C439.106 444.137 438.734 444.362 438.363 444.588C437.694 444.994 437.032 445.409 436.376 445.833C436.017 446.067 435.659 446.301 435.303 446.54C434.635 446.988 433.975 447.447 433.323 447.916C433.001 448.146 432.678 448.374 432.36 448.609C431.649 449.134 430.951 449.674 430.258 450.222C430.015 450.414 429.767 450.601 429.526 450.796C429.41 450.89 429.289 450.978 429.173 451.073C429.142 451.099 429.125 451.131 429.097 451.159C411.436 465.62 400.841 486.942 400.001 509.718C399.984 510.319 400.213 510.901 400.634 511.331C401.055 511.761 401.634 512.002 402.236 512H402.636C403.842 511.994 404.827 511.035 404.861 509.832C405.73 487.518 416.55 466.758 434.363 453.228L434.375 453.222C439.041 449.664 444.109 446.663 449.474 444.279C449.657 444.198 449.84 444.115 450.024 444.035C450.759 443.716 451.499 443.409 452.246 443.114C452.527 443.002 452.81 442.894 453.094 442.786C453.794 442.518 454.498 442.255 455.209 442.008C455.551 441.888 455.898 441.778 456.242 441.664C456.923 441.438 457.602 441.211 458.291 441.004C458.694 440.883 459.103 440.777 459.509 440.664C460.567 440.368 461.629 440.092 462.699 439.841C463.319 439.695 463.938 439.547 464.564 439.418C465.046 439.318 465.532 439.232 466.016 439.141C466.671 439.019 467.326 438.9 467.986 438.795C468.456 438.72 468.928 438.652 469.401 438.586C470.099 438.489 470.799 438.401 471.503 438.324C471.947 438.274 472.391 438.225 472.837 438.183C473.622 438.11 474.412 438.054 475.203 438.006C475.575 437.983 475.946 437.953 476.319 437.936C477.488 437.881 478.662 437.848 479.844 437.848C481.026 437.848 482.2 437.881 483.369 437.936C483.742 437.953 484.113 437.983 484.484 438.006C485.276 438.054 486.066 438.11 486.851 438.183C487.297 438.225 487.741 438.274 488.185 438.324C488.889 438.402 489.589 438.489 490.286 438.586C490.759 438.652 491.232 438.72 491.702 438.795C492.362 438.9 493.017 439.019 493.672 439.141C494.156 439.232 494.642 439.318 495.123 439.418C495.749 439.547 496.369 439.695 496.989 439.841C498.058 440.092 499.121 440.368 500.179 440.664C500.585 440.777 500.994 440.883 501.397 441.004C502.086 441.211 502.765 441.438 503.445 441.664C503.79 441.778 504.137 441.888 504.479 442.008C505.19 442.255 505.894 442.518 506.594 442.786C506.878 442.894 507.161 443.002 507.442 443.114C508.188 443.41 508.929 443.717 509.663 444.035C509.848 444.115 510.031 444.198 510.214 444.279C515.579 446.663 520.646 449.664 525.313 453.222L525.325 453.228Z" fill="#132E54"/>
<path fill-rule="evenodd" clip-rule="evenodd" d="M223.147 433C204.672 432.973 186.764 439.363 172.496 451.073C172.051 451.442 171.885 452.05 172.081 452.593C172.278 453.136 172.794 453.498 173.372 453.499H176.88C177.176 453.499 177.463 453.401 177.697 453.222C200.067 436.157 230.138 433.043 255.544 445.16C280.951 457.278 297.405 482.582 298.141 510.668C298.155 511.406 298.758 511.998 299.498 512H301.62C301.991 512 302.346 511.851 302.605 511.587C302.865 511.323 303.007 510.966 303 510.597C301.856 467.416 266.443 433.003 223.147 433Z" fill="#132E54"/>
<path fill-rule="evenodd" clip-rule="evenodd" d="M155.597 484.372C166.973 456.907 193.774 439 223.501 439C264.093 439 297 471.907 297 512.499C297 542.226 279.093 569.027 251.628 580.403C224.163 591.779 192.55 585.491 171.529 564.471C150.509 543.45 144.221 511.837 155.597 484.372ZM284.652 487.169C274.407 462.436 250.272 446.309 223.501 446.309C186.963 446.351 157.353 475.961 157.312 512.499C157.312 539.27 173.438 563.405 198.171 573.65C222.905 583.895 251.374 578.232 270.304 559.302C289.234 540.372 294.897 511.903 284.652 487.169Z" fill="#BEC4CA"/>
<path fill-rule="evenodd" clip-rule="evenodd" d="M163.026 487.742C173.241 463.08 197.307 447 224.001 447C260.451 447 290 476.549 290 512.999C290 539.693 273.92 563.759 249.258 573.974C224.596 584.19 196.208 578.543 177.333 559.667C158.457 540.792 152.81 512.404 163.026 487.742ZM285.141 512.999C285.141 479.232 257.768 451.859 224.001 451.859C190.25 451.897 162.899 479.248 162.861 512.999C162.861 546.766 190.234 574.139 224.001 574.139C257.768 574.139 285.141 546.766 285.141 512.999Z" fill="#DFE2E5"/>
<path fill-rule="evenodd" clip-rule="evenodd" d="M237.753 515.028C238.991 507.373 233.787 500.165 226.13 498.927C218.473 497.689 211.262 502.891 210.024 510.546C208.786 518.2 213.989 525.408 221.646 526.646C229.303 527.884 236.514 522.682 237.753 515.028Z" fill="#6D7783"/>
<path fill-rule="evenodd" clip-rule="evenodd" d="M477.869 517.624L510 419.452L506.648 419.265L474.982 516.017L401.147 414.146L398.69 410.767L404.044 390H397.336L391.869 411.242L390.602 416.149L379.22 460.409C356.77 457.315 335.995 447.363 316.905 435.513C298.968 424.364 283.478 409.706 271.366 392.421C269.048 389.129 264.407 393.344 266.703 396.604C279.625 414.917 296.212 430.354 315.415 441.941C334.638 453.603 355.283 463.171 377.659 466.479L366.202 511.032L267.272 406.698L262.119 401.266L260 408.451L265.153 413.896L364.296 518.442L369.563 524L371.468 516.59L395.768 422.145L397.022 417.238L397.348 415.986L399.48 418.928L475.1 523.261L478.473 520.833L476.868 518.618C477.339 518.46 477.709 518.093 477.869 517.624Z" fill="#0F1823"/>
<path fill-rule="evenodd" clip-rule="evenodd" d="M525.988 416H430.177C430.111 416 430.05 416.015 429.985 416.02C429.339 415.978 428.7 416.183 428.194 416.593L408.979 432.272C408.249 432.867 407.887 433.812 408.031 434.751C408.175 435.689 408.802 436.479 409.676 436.821C410.55 437.164 411.538 437.007 412.268 436.411L429.843 422.07C429.954 422.088 430.065 422.099 430.177 422.104H525.988C527.064 422.104 528.059 421.522 528.597 420.578C529.134 419.634 529.134 418.47 528.597 417.526C528.059 416.582 527.064 416 525.988 416V416Z" fill="#6AA1D8"/>
<path fill-rule="evenodd" clip-rule="evenodd" d="M405 512.5C405 471.907 437.907 439 478.5 439C497.993 439 516.688 446.744 530.472 460.528C544.256 474.312 552 493.007 552 512.5C552 553.093 519.093 586 478.5 586C437.907 586 405 553.093 405 512.5ZM544.691 512.5C544.691 475.944 515.056 446.309 478.5 446.309C441.961 446.351 412.351 475.961 412.309 512.5C412.309 549.056 441.944 578.691 478.5 578.691C515.056 578.691 544.691 549.056 544.691 512.5Z" fill="#BEC4CA"/>
<path fill-rule="evenodd" clip-rule="evenodd" d="M413 513C413 476.549 442.549 447 479 447C496.504 447 513.292 453.954 525.669 466.331C538.046 478.708 545 495.496 545 513C545 549.451 515.451 579 479 579C442.549 579 413 549.451 413 513ZM540.141 513C540.141 479.233 512.767 451.859 479 451.859C445.248 451.897 417.897 479.249 417.859 513C417.859 546.767 445.233 574.141 479 574.141C512.767 574.141 540.141 546.767 540.141 513Z" fill="#DFE2E5"/>
<path fill-rule="evenodd" clip-rule="evenodd" d="M525 445.564C502.782 430.928 474.893 427.944 450.099 437.551C425.306 447.158 406.651 468.177 400 494H476.736L525 445.564Z" fill="#6D7783"/>
<path fill-rule="evenodd" clip-rule="evenodd" d="M478.985 499H367.213C356.929 499.134 347.924 505.982 344.983 515.905C342.043 525.827 345.849 536.523 354.38 542.308C361.248 546.95 368.275 546.39 376.023 545.048C385.628 543.383 395.233 541.718 404.839 540.054C422.002 537.079 439.166 534.104 456.33 531.129C461.107 530.301 465.884 529.473 470.662 528.645C475.909 527.735 482.073 527.956 486.672 524.914C491.852 521.491 494.185 515.052 492.413 509.076C490.64 503.099 485.181 499.003 478.985 499V499Z" fill="#6D7783"/>
<path fill-rule="evenodd" clip-rule="evenodd" d="M478.5 517C480.985 517 483 514.985 483 512.5C483 510.015 480.985 508 478.5 508C476.015 508 474 510.015 474 512.5C474 514.985 476.015 517 478.5 517Z" fill="#0F1823"/>
<path fill-rule="evenodd" clip-rule="evenodd" d="M350.409 515.42C353.272 508.507 360.018 504 367.5 504C377.717 504 386 512.283 386 522.5C386 529.982 381.493 536.728 374.58 539.591C367.667 542.455 359.71 540.872 354.419 535.581C349.128 530.29 347.545 522.333 350.409 515.42ZM381.723 516.609C379.34 510.856 373.727 507.106 367.5 507.106C359.002 507.115 352.116 514.002 352.106 522.5C352.106 528.726 355.857 534.339 361.609 536.722C367.362 539.105 373.983 537.788 378.386 533.385C382.788 528.982 384.105 522.361 381.723 516.609Z" fill="white"/>
<path fill-rule="evenodd" clip-rule="evenodd" d="M418.938 376.552C418.894 376.542 418.851 376.532 418.807 376.522C414.883 375.646 410.662 376.095 406.685 376.284C402.226 376.496 397.768 376.735 393.309 376.944C384.497 377.357 375.673 377.666 366.851 377.446C364.379 377.384 361.587 377.553 359.582 379.254C356.038 382.261 359.11 385.575 362.325 386.347C365.396 387.084 368.579 386.554 371.651 387.144C375.637 387.759 379.52 388.92 383.193 390.596C390.774 394.545 398.994 398.541 407.698 398.966C415.03 399.323 424.838 396.982 426.732 388.37C428.041 382.424 424.409 377.825 418.938 376.552Z" fill="#6AA1D8"/>
<path fill-rule="evenodd" clip-rule="evenodd" d="M310.428 334.05C310.116 333.96 309.792 333.917 309.467 333.925C307.856 333.95 306.282 334.113 304.708 334.163C303.034 334.188 301.361 334.163 299.7 334.088C296.415 333.952 293.143 333.587 289.908 332.997C287.39 332.413 284.822 332.081 282.239 332.006C279.544 331.912 276.924 332.911 274.97 334.778C273.168 336.588 272.219 339.083 272.36 341.638C272.73 345.197 274.785 348.358 277.88 350.129L268.85 380.782H261.394V386.414H267.189L262.643 401.878L260.532 409.077L259.72 411.811H251.389V417.443H258.059L234.216 498.239L221.926 510.58C220.691 511.82 220.691 513.83 221.926 515.07C223.161 516.31 225.163 516.31 226.397 515.07L230.457 510.994L239.499 501.913C239.854 501.556 240.116 501.117 240.261 500.634C240.273 500.597 240.286 500.571 240.298 500.534L265.665 414.533L267.776 407.321L284.962 349.088C284.987 349.038 284.987 348.963 285.012 348.888C285.2 348.11 284.956 347.291 284.375 346.743C283.645 346.281 282.843 345.946 282.002 345.752C281.835 345.696 281.672 345.629 281.515 345.552C280.816 345.239 280.164 344.83 279.579 344.335C278.023 343.213 277.4 341.189 278.055 339.381C278.967 337.286 281.877 337.311 283.8 337.449C287.048 337.725 290.22 338.616 293.442 339.005C296.736 339.416 300.053 339.596 303.372 339.544C304.995 339.519 306.619 339.444 308.255 339.306C308.968 339.292 309.671 339.143 310.328 338.867C311.224 338.477 311.85 337.643 311.977 336.672C312.132 335.542 311.49 334.455 310.428 334.05Z" fill="#0F1823"/>
<path fill-rule="evenodd" clip-rule="evenodd" d="M262.005 374.019C261.067 372.743 259.578 371.993 257.997 372H173.998C172.419 372 170.934 372.748 169.99 374.019C169.047 375.289 168.757 376.933 169.209 378.451L182.74 424H249.256L262.787 378.451C263.245 376.933 262.955 375.287 262.005 374.019ZM177.968 399.387H189.032L190.789 410.424H181.247L177.968 399.387ZM214.838 410.424V399.387H204.416L205.193 410.424H214.838ZM204.257 397.13L203.48 386.093H214.838V397.13H204.257ZM227.58 399.387H217.158V410.424H226.803L227.58 399.387ZM217.158 397.13V386.093H228.515L227.739 397.13H217.158ZM217.158 374.443V383.835H228.674L229.335 374.443H217.158ZM214.838 383.835H203.321L202.66 374.443H214.838V383.835ZM188.904 383.835H200.996L200.335 374.443H187.408L188.904 383.835ZM201.155 386.093L201.931 397.13H191.021L189.264 386.093H201.155ZM177.297 397.13H188.672L186.914 386.093H174.019L177.297 397.13ZM191.381 399.387H202.09L202.867 410.424H193.139L191.381 399.387ZM203.65 421.555L203.026 412.681H193.498L194.911 421.555H203.65ZM205.351 412.681H214.838V421.555H205.976L205.351 412.681ZM226.644 412.681H217.158V421.555H226.02L226.644 412.681ZM228.97 412.681H238.497L237.084 421.555H228.345L228.97 412.681ZM229.905 399.387L229.129 410.424H238.857L240.615 399.387H229.905ZM242.964 399.387H254.027L250.749 410.424H241.206L242.964 399.387ZM245.081 386.093L243.324 397.13H254.698L257.977 386.093H245.081ZM240.974 397.13H230.064L230.841 386.093H242.732L240.974 397.13ZM231.661 374.443L231 383.835H243.092L244.587 374.443H231.661ZM171.942 375.479C172.424 374.824 173.187 374.44 173.998 374.443H185.059L186.555 383.835H173.348L171.541 377.753C171.306 376.974 171.455 376.129 171.942 375.479ZM191.149 412.681H181.918L184.554 421.555H192.562L191.149 412.681ZM247.442 421.555H239.434L240.847 412.681H250.078L247.442 421.555ZM258.648 383.835L260.455 377.753C260.686 376.974 260.537 376.131 260.053 375.479C259.569 374.827 258.807 374.443 257.997 374.443H246.937L245.441 383.835H258.648Z" fill="#6AA1D8"/>
<path fill-rule="evenodd" clip-rule="evenodd" d="M309.305 332.019C304.739 332.584 300.129 332.675 295.545 332.29C290.805 331.895 290.831 339.374 295.545 339.767C300.129 340.151 304.739 340.06 309.305 339.496C311.319 339.432 312.936 337.795 313 335.757C313.019 333.925 311.285 331.775 309.305 332.019Z" fill="#6AA1D8"/>
<path fill-rule="evenodd" clip-rule="evenodd" d="M368.402 524.928C367.254 525.231 366.078 524.546 365.77 523.394L356.071 486.716C355.77 485.563 356.452 484.381 357.598 484.072C358.746 483.769 359.922 484.454 360.23 485.606L369.929 522.284C370.23 523.438 369.548 524.619 368.402 524.928Z" fill="#0F1823"/>
<path fill-rule="evenodd" clip-rule="evenodd" d="M367.74 484.846L349.671 491.869C348.657 492.259 347.522 491.748 347.13 490.725C346.744 489.7 347.249 488.551 348.26 488.154L366.329 481.131C367.343 480.741 368.478 481.252 368.87 482.275C369.256 483.301 368.751 484.449 367.74 484.846Z" fill="#6AA1D8"/>
<path fill-rule="evenodd" clip-rule="evenodd" d="M363.875 481.679C363.435 481.075 362.334 479.028 361.66 477.724C361.369 477.145 361.141 476.726 361.103 476.627C360.825 476.072 360.572 475.493 360.345 474.926C359.826 473.693 359.384 472.424 358.966 471.154C358.865 470.858 357.512 467.025 357.576 467C354.376 468.307 351.144 469.535 347.877 470.686C347.877 470.686 351.165 478.982 350.874 479.918C350.84 480.024 350.797 480.127 350.748 480.227C350.343 480.954 349.42 481.508 348.851 482.088C346.054 484.977 343.099 487.718 340 490.297C340.089 490.531 340.177 490.766 340.253 491C340.253 491 361.23 482.952 364 481.885C363.958 481.816 363.917 481.747 363.875 481.679Z" fill="#E8E4E3"/>
<path fill-rule="evenodd" clip-rule="evenodd" d="M431.255 348.202C430.738 345.096 430.036 342.023 429.154 339H396.197C396.316 340.456 396.205 341.922 395.867 343.344C395.737 343.87 395.565 344.385 395.352 344.884C393.116 350.055 387.01 352.17 381.546 353.56C359.486 359.169 336.283 362.273 315.97 373.115C307.779 377.484 302.39 384.971 303.055 394.548C303.571 401.934 307.101 408.77 310.957 415.117C322.59 434.272 337.866 451.361 346.735 471.942C346.936 472.38 358.267 470.24 357.978 468.449C357.978 465.219 356.86 461.639 356.345 458.434C355.818 455.179 355.076 451.949 354.31 448.731C352.69 441.984 350.717 435.336 348.506 428.763C345.328 419.311 341.358 409.771 333.972 402.761C332.351 401.208 328.457 398.967 330.341 396.201C348.645 397.69 366.935 396.213 385.151 394.536C398.254 393.334 412.575 392.157 422.072 383.093C429.873 375.631 432.662 364.101 431.871 353.347C431.745 351.619 431.544 349.904 431.255 348.202Z" fill="#FF745D"/>
<path fill-rule="evenodd" clip-rule="evenodd" d="M443.94 341.214C444.246 340.936 444.543 340.648 444.832 340.35C447.134 337.758 448.744 334.625 449.512 331.241C451.681 323.466 452.441 315.364 451.756 307.32C451.548 304.873 451.211 302.438 450.749 300.025C448.059 285.987 441.8 272.723 433.728 261.007C432.936 259.856 432.124 258.72 431.293 257.597C427.04 251.77 422.194 246.402 416.832 241.581C415.427 240.335 407.674 232.388 405.57 233.038C399.212 235.001 392.822 236.847 386.491 238.899C385.41 239.249 384.699 244.421 384.35 245.517C382.162 252.385 378.446 258.736 375.087 265.077C372.711 269.564 370.592 274.393 373.194 279.274C375.47 283.543 379.922 286.001 383.34 289.219C392.43 297.775 395.482 310.795 396.274 322.823C396.564 326.269 396.679 329.726 396.62 333.183C396.507 336.362 394.961 339.996 395.104 342.959C400.305 343.105 405.344 342.419 410.603 343.08C415.873 343.796 421.083 344.906 426.188 346.401C428.313 347.053 430.474 347.582 432.66 347.987C433.449 348.11 434.265 347.353 434.858 346.943C435.693 346.396 436.563 345.905 437.463 345.472C439.796 344.339 441.973 342.907 443.94 341.214Z" fill="#184FE1"/>
<path fill-rule="evenodd" clip-rule="evenodd" d="M363.875 481.721C363.435 481.121 362.334 479.083 361.66 477.785C361.369 477.209 361.141 476.791 361.103 476.693C360.825 476.141 360.572 475.564 360.345 475C359.685 475.871 358.901 476.648 358.018 477.307C357.01 477.96 355.928 478.5 354.794 478.914C353.516 479.469 352.192 479.917 350.836 480.251C350.811 480.264 350.773 480.264 350.748 480.276C350.343 481 349.42 481.552 348.851 482.129C346.054 485.005 343.099 487.733 340 490.3C340.089 490.534 340.177 490.767 340.253 491C340.253 491 361.23 482.989 364 481.927C363.958 481.858 363.917 481.79 363.875 481.721Z" fill="#231510"/>
<path fill-rule="evenodd" clip-rule="evenodd" d="M395.395 341.104C396.055 340.037 397.989 340.19 399.021 340.132C400.775 340.032 402.531 339.989 404.289 340.003C409.014 340.104 413.729 340.509 418.404 341.216C421.617 341.66 424.739 342.633 427.649 344.098C429.538 345.003 431.308 346.149 432.917 347.51C434.749 349.137 433.908 353.094 432.938 355C431.988 354.28 430.988 353.634 429.944 353.067C427.342 351.941 424.612 351.152 421.82 350.717C419.031 350.083 416.113 349.467 413.259 348.923C410.054 348.319 406.818 347.899 403.567 347.663C401.88 347.538 400.191 347.455 398.5 347.416C396.994 347.539 395.478 347.44 394 347.121C394.055 345.923 394.264 344.738 394.62 343.596C394.779 342.736 395.039 341.899 395.395 341.104Z" fill="#4975EA"/>
<path fill-rule="evenodd" clip-rule="evenodd" d="M437.829 271.158C436.92 267.545 435.584 264.054 433.849 260.758C432.968 259.11 431.958 257.534 430.828 256.046C430.717 255.9 430.606 255.755 430.493 255.611C429.55 254.429 428.544 253.299 427.481 252.225C426.955 251.681 426.423 251.142 425.894 250.6C425.644 250.343 425.38 250.092 425.143 249.825C424.932 249.566 424.681 249.343 424.4 249.164C424.275 249.09 424.14 249.035 424 249C426.905 254.36 429.318 259.973 431.211 265.771C431.405 266.417 431.59 267.067 431.765 267.719C432.08 269.296 432.641 270.814 433.427 272.216C433.91 273.058 434.701 273.677 435.632 273.943C436.595 274.179 437.583 273.665 437.945 272.739C438.047 272.211 438.007 271.665 437.829 271.158Z" fill="#F7AA74"/>
<path fill-rule="evenodd" clip-rule="evenodd" d="M447.759 282.554C447.12 277.195 444.923 272.147 441.444 268.041C439.389 265.607 436.827 263.657 433.94 262.332C433.453 262.061 432.894 261.952 432.342 262.02C431.304 262.246 430.971 263.432 430.777 264.404C428.322 276.714 417.671 286.352 405.062 290.067C402.138 290.925 399.132 291.468 396.095 291.687C394.44 291.807 391.516 291.842 392.068 294.116C392.624 295.857 393.435 297.503 394.473 299.003C400.722 309.529 412.916 314.904 424.835 312.386C432.199 311.092 438.806 307.049 443.339 301.064C447.067 295.671 448.645 289.064 447.759 282.554Z" fill="#F8EEE5"/>
<path fill-rule="evenodd" clip-rule="evenodd" d="M439.82 281.314C439.34 277.322 437.692 273.56 435.083 270.501C433.542 268.687 431.62 267.235 429.455 266.247C429.09 266.045 428.67 265.964 428.256 266.015C427.478 266.183 427.228 267.067 427.083 267.791C425.242 276.963 417.253 284.144 407.796 286.913C405.604 287.552 403.349 287.957 401.071 288.12C399.83 288.209 397.637 288.235 398.051 289.93C398.468 291.226 399.076 292.454 399.855 293.571C404.542 301.414 413.687 305.419 422.626 303.542C428.149 302.578 433.105 299.566 436.505 295.107C439.3 291.088 440.484 286.165 439.82 281.314Z" fill="#F9C6A0"/>
<path fill-rule="evenodd" clip-rule="evenodd" d="M432.594 310.923C432.616 310.934 432.639 310.943 432.662 310.951C432.856 311.004 433.06 311.014 433.258 310.982C437.836 310.539 443.322 307.795 443.984 303.275C444.186 301.898 442.415 300.775 441.4 299.959C439.809 298.645 438.126 297.44 436.362 296.351C434.662 295.332 432.645 293.741 430.394 294.036C428.87 294.235 425.686 295.986 426.025 297.632C426.15 298.24 426.86 298.574 427.221 299.061C428.844 301.352 430.128 303.851 431.035 306.484C431.336 307.299 431.617 308.119 431.889 308.943C432.046 309.418 432.026 310.635 432.594 310.923Z" fill="#F7AA74"/>
<path fill-rule="evenodd" clip-rule="evenodd" d="M435.5 305C436.881 305 438 303.881 438 302.5C438 301.119 436.881 300 435.5 300C434.119 300 433 301.119 433 302.5C433 303.881 434.119 305 435.5 305Z" fill="#FCFCFC"/>
<path fill-rule="evenodd" clip-rule="evenodd" d="M411.996 248.529C411.964 251.082 411.645 253.623 411.044 256.104C410.883 256.793 410.703 257.469 410.523 258.144C408.582 265.254 405.902 272.022 403.443 278.956C402.002 283.026 400.466 287.046 398.949 291.079C398.172 293.134 397.398 295.205 396.621 297.26C396.222 298.324 395.827 299.405 395.428 300.469C395.222 301.011 394.264 302.668 394.401 303.195C392.566 308.086 390.73 313.324 386.433 316.651C383.245 319.105 379.179 320.05 375.255 320.934C370.623 321.99 365.97 323.032 361.337 324.088C346.357 327.466 331.372 330.85 316.382 334.241C313.489 334.898 309.264 334.877 307.658 337.82C306.641 339.684 306.716 342.785 304.761 343.992C303.363 344.855 301.474 344.627 299.917 344.869C299.181 345.027 298.421 345.042 297.68 344.914C296.385 344.612 296.042 343.744 296.032 342.542C295.933 340.144 296.066 337.743 296.428 335.371C297.337 330.486 300.813 327.167 305.292 325.233C309.007 323.628 313.158 323.566 317.182 323.026C329.066 321.41 339.948 315.419 351.012 310.552C359.305 306.898 367.722 303.879 376.709 303.811C379.795 290.837 382.875 277.864 385.95 264.891C386.988 259.725 388.527 254.673 390.545 249.806C392.658 245.103 396.025 239.828 400.959 237.745C403.32 236.655 406.06 236.767 408.325 238.044C411.569 240.166 412.053 244.987 411.996 248.529Z" fill="#EEA0AD"/>
<path fill-rule="evenodd" clip-rule="evenodd" d="M411.996 248.517C411.964 251.068 411.644 253.606 411.043 256.085C410.883 256.773 410.703 257.448 410.522 258.123C408.581 265.225 405.9 271.987 403.441 278.913C402 282.98 400.463 286.995 398.946 291.024C398.169 293.077 397.395 295.146 396.618 297.199C396.219 298.262 395.824 299.342 395.425 300.404C395.219 300.946 394.261 302.601 394.398 303.128C392.563 308.014 390.726 313.246 386.428 316.57C383.24 319.022 379.172 319.967 375.248 320.849C370.614 321.904 365.961 322.945 361.327 324C360.897 323.029 360.434 322.064 359.94 321.122C358.319 317.867 356.162 314.907 353.561 312.367C352.744 311.688 351.889 311.058 351 310.478C359.295 306.828 367.713 303.811 376.702 303.744C379.789 290.783 382.869 277.822 385.945 264.863C386.983 259.702 388.522 254.655 390.541 249.793C392.654 245.095 396.021 239.825 400.957 237.744C403.319 236.655 406.059 236.767 408.324 238.043C411.569 240.163 412.053 244.979 411.996 248.517Z" fill="#4975EA"/>
<path fill-rule="evenodd" clip-rule="evenodd" d="M405.935 226.252C405.319 224.632 403.777 224.933 402.345 225.253C398.781 226.088 395.287 227.185 391.894 228.534C390.191 229.191 388.503 229.885 386.819 230.588C385.438 231.164 383.401 231.63 382.319 232.682C381.427 233.549 382.643 234.959 383.072 235.767C383.743 237.032 384.227 238.382 384.512 239.777C384.549 240.059 384.637 240.333 384.772 240.586C385.41 241.599 388.596 240.465 389.547 240.223C391.309 239.773 393.031 239.195 394.74 238.587C396.746 237.872 398.734 237.111 400.759 236.45C402.775 235.792 404.837 235.335 406.904 234.842C407.454 234.712 408.031 234.697 407.999 234.034C407.709 231.356 407.014 228.733 405.935 226.252Z" fill="#4975EA"/>
<path fill-rule="evenodd" clip-rule="evenodd" d="M415.1 201.034C415.483 200.477 415.734 199.845 415.835 199.184C416.308 196.678 415.753 194.093 414.287 191.973C413.836 191.264 413.2 190.68 412.441 190.282C411.795 189.948 411.027 189.909 410.348 190.175C409.625 190.567 410.214 191.306 410.464 191.903C411.701 195.171 412.586 198.553 413.104 201.996C413.852 202.041 414.573 201.718 415.019 201.137C415.047 201.103 415.074 201.069 415.1 201.034Z" fill="#F7AA74"/>
<rect x="685.635" y="104.367" width="16" height="16" rx="8" transform="rotate(-12 685.635 104.367)" fill="#1DD37F"/>
<path fill-rule="evenodd" clip-rule="evenodd" d="M694.906 113.591L691.17 110.954C691.097 110.903 691.076 110.8 691.124 110.724L691.517 110.099C691.565 110.024 691.662 110.004 691.735 110.056L694.563 112.052C694.6 112.078 694.644 112.087 694.686 112.078C694.727 112.068 694.764 112.041 694.785 112.003L697.644 106.98C697.688 106.902 697.785 106.878 697.86 106.926L698.481 107.325C698.556 107.373 698.581 107.475 698.536 107.552L695.128 113.542C695.106 113.58 695.07 113.607 695.028 113.617C694.986 113.626 694.942 113.617 694.906 113.591Z" fill="white"/>
<rect x="598.219" y="252.11" width="21" height="21" rx="10.5" transform="rotate(-8 598.219 252.11)" fill="#1DD37F"/>
<path fill-rule="evenodd" clip-rule="evenodd" d="M609.437 265.961L604.969 262.069C604.882 261.993 604.864 261.854 604.929 261.759L605.468 260.971C605.533 260.875 605.656 260.86 605.744 260.936L609.126 263.881C609.169 263.919 609.223 263.936 609.276 263.928C609.329 263.92 609.376 263.887 609.407 263.839L613.359 257.469C613.42 257.37 613.543 257.348 613.633 257.42L614.378 258.013C614.468 258.085 614.492 258.223 614.43 258.322L609.718 265.918C609.687 265.967 609.64 265.999 609.587 266.007C609.534 266.015 609.48 265.998 609.437 265.961Z" fill="white"/>
</svg>
