<svg width="20" heigth="20" viewBox="0 0 30 30" fill="none" xmlns="http://www.w3.org/2000/svg">
<path fill-rule="evenodd" clip-rule="evenodd" d="M0 10C0 4.4775 4.4775 0 10 0C15.5225 0 20 4.4775 20 10C20 15.5225 15.5225 20 10 20C4.4775 20 0 15.5225 0 10ZM13.9225 12.7442L11.1783 10C11.1783 10 13.795 7.38417 13.9225 7.25583C14.2483 6.93083 14.2483 6.40333 13.9225 6.0775C13.5975 5.75167 13.07 5.75167 12.7442 6.0775L10 8.82167C10 8.82167 7.38417 6.205 7.25583 6.0775C6.93083 5.75167 6.40333 5.75167 6.0775 6.0775C5.75167 6.4025 5.75167 6.93 6.0775 7.25583L8.82167 10C8.82167 10 6.205 12.6158 6.0775 12.7442C5.75167 13.0692 5.75167 13.5967 6.0775 13.9225C6.4025 14.2483 6.93 14.2483 7.25583 13.9225L10 11.1783C10 11.1783 12.6158 13.795 12.7442 13.9225C13.0692 14.2483 13.5967 14.2483 13.9225 13.9225C14.2483 13.5975 14.2483 13.07 13.9225 12.7442Z" fill="#EF5350"/>
</svg>
