<svg width="20" height="20" viewBox="0 0 30 30" fill="none" xmlns="http://www.w3.org/2000/svg">
<path fill-rule="evenodd" clip-rule="evenodd" d="M0 15C0 6.71571 6.71571 0 15 0C23.2843 0 30 6.71571 30 15C30 23.2843 23.2843 30 15 30C6.71571 30 0 23.2843 0 15ZM20.1436 10.3365C20.3394 10.1296 20.606 10.0091 20.8869 10.0005C21.3326 9.98699 21.7407 10.2558 21.9145 10.6774C22.0883 11.099 21.9921 11.5868 21.6724 11.9059L14.1045 19.6751C13.6823 20.1083 12.998 20.1083 12.5758 19.6751L9.33243 16.3454C9.05 16.067 8.93623 15.6537 9.03499 15.2647C9.13376 14.8758 9.42963 14.572 9.8085 14.4706C10.1874 14.3692 10.59 14.486 10.8612 14.776L13.3402 17.3209L20.1436 10.3365Z" fill="#1DD37F"/>
</svg>
